{"accessors":[{"bufferView":0,"byteOffset":0,"componentType":5126,"count":4,"max":[1.1090847130441529,1.7600785376236068,2.1824376372667579],"min":[-0.1270409465249619,0.01837550527044404,0.041532470136877778],"type":"VEC3"},{"bufferView":0,"byteOffset":48,"componentType":5126,"count":4,"max":[1.2821399548837254,1.7395321932513273,2.1824376372667579],"min":[-0.11964048553336491,0.01837550527044404,-0.046041048502800139],"type":"VEC3"},{"bufferView":0,"byteOffset":96,"componentType":5126,"count":4,"max":[1.2821399548837254,1.7605051959341774,2.0821794643603406],"min":[0.046014295314610768,0.018802163581014734,-0.058725702769539488],"type":"VEC3"},{"bufferView":0,"byteOffset":144,"componentType":5126,"count":4,"max":[1.2747394938921284,1.7605051959341774,2.169752983000018],"min":[-0.1270409465249619,0.03934850795329433,-0.058725702769539488],"type":"VEC3"},{"bufferView":0,"byteOffset":192,"componentType":5126,"count":4,"max":[0.053414756306207709,0.03977516626386502,0.054217124403617127],"min":[-0.1270409465249619,0.018375505270444037,-0.058725702769539509],"type":"VEC3"},{"bufferView":0,"byteOffset":240,"componentType":5126,"count":4,"max":[1.2821399548837256,1.7605051959341774,2.1824376372667579],"min":[1.101684252052556,1.7391055349407565,2.069494810093601],"type":"VEC3"},{"bufferView":1,"byteOffset":0,"componentType":5126,"count":4,"type":"VEC3"},{"bufferView":1,"byteOffset":48,"componentType":5126,"count":4,"type":"VEC3"},{"bufferView":1,"byteOffset":96,"componentType":5126,"count":4,"type":"VEC3"},{"bufferView":1,"byteOffset":144,"componentType":5126,"count":4,"type":"VEC3"},{"bufferView":1,"byteOffset":192,"componentType":5126,"count":4,"type":"VEC3"},{"bufferView":1,"byteOffset":240,"componentType":5126,"count":4,"type":"VEC3"},{"bufferView":2,"byteOffset":0,"componentType":5123,"count":6,"type":"SCALAR"},{"bufferView":2,"byteOffset":12,"componentType":5123,"count":6,"type":"SCALAR"},{"bufferView":2,"byteOffset":24,"componentType":5123,"count":6,"type":"SCALAR"},{"bufferView":2,"byteOffset":36,"componentType":5123,"count":6,"type":"SCALAR"},{"bufferView":2,"byteOffset":48,"componentType":5123,"count":6,"type":"SCALAR"},{"bufferView":2,"byteOffset":60,"componentType":5123,"count":6,"type":"SCALAR"}],"asset":{"generator":"Open CASCADE Technology 7.6 [dev.opencascade.org]","version":"2.0"},"bufferViews":[{"buffer":0,"byteLength":288,"byteOffset":0,"byteStride":12,"target":34962},{"buffer":0,"byteLength":288,"byteOffset":288,"byteStride":12,"target":34962},{"buffer":0,"byteLength":72,"byteOffset":576,"target":34963}],"buffers":[{"byteLength":648,"uri":"parede.bin"}],"materials":[{"name":"mat_0","pbrMetallicRoughness":{"baseColorFactor":[1.0,1.0,1.0,1.0]},"doubleSided":true}],"meshes":[{"name":"Parede","primitives":[{"attributes":{"NORMAL":6,"POSITION":0},"indices":12,"material":0,"mode":4},{"attributes":{"NORMAL":7,"POSITION":1},"indices":13,"material":0,"mode":4},{"attributes":{"NORMAL":8,"POSITION":2},"indices":14,"material":0,"mode":4},{"attributes":{"NORMAL":9,"POSITION":3},"indices":15,"material":0,"mode":4},{"attributes":{"NORMAL":10,"POSITION":4},"indices":16,"material":0,"mode":4},{"attributes":{"NORMAL":11,"POSITION":5},"indices":17,"material":0,"mode":4}]}],"nodes":[{"children":[1],"name":"Parte de Edifício"},{"rotation":[0.28952164802686805,0.40545159696913365,0.501467627555821,0.707330500086432],"translation":[-0.014870551976073102,0.05424909023098667,-0.035276521516088458],"mesh":0,"name":"Parede"}],"scene":0,"scenes":[{"nodes":[0]}]}